<svg width="430" height="430" viewBox="0 0 430 430" fill="none" xmlns="http://www.w3.org/2000/svg">
<path d="M337.3 169.8C332.9 109 283.8 60.1998 223 56.2998C188.6 53.9998 155.8 65.7998 130.8 89.1998C106.2 112.3 92 145 92 178.8C92 191.7 94.1 204.8 98.3 217.6C121.9 290.7 207.2 369.9 210.8 373.2C211.9 374.3 213.4 374.8 214.9 374.8C216.4 374.8 218 374.2 219.1 373C222.9 369.2 313.3 278.5 332.3 214.8C336.7 200 338.4 184.8 337.3 169.8ZM320.7 211.5C304.8 264.8 232.7 341.8 214.7 360.5C197.1 343.4 129.4 275 109.7 214C105.9 202.3 104 190.5 104 178.8C104 147.8 116.4 119.1 139 97.9998C161.6 76.7998 191.1 66.2998 222.2 68.2998C277 71.7998 321.4 115.8 325.3 170.7C326.3 184.2 324.8 197.9 320.7 211.5ZM214.8 117.8C181.2 117.8 153.8 145.2 153.8 178.8C153.8 212.4 181.2 239.8 214.8 239.8C248.4 239.8 275.8 212.4 275.8 178.8C275.8 145.2 248.4 117.8 214.8 117.8ZM214.8 227.8C187.8 227.8 165.8 205.8 165.8 178.8C165.8 151.8 187.8 129.8 214.8 129.8C241.8 129.8 263.8 151.8 263.8 178.8C263.8 205.8 241.8 227.8 214.8 227.8Z" fill="url(#paint0_linear_2119_4981)"/>
<defs>
<linearGradient id="paint0_linear_2119_4981" x1="121.654" y1="98.2929" x2="307.774" y2="284.413" gradientUnits="userSpaceOnUse">
<stop stop-color="#CB5EEE"/>
<stop offset="1" stop-color="#4BE1EC"/>
</linearGradient>
</defs>
</svg>
